<svg width="960" height="1080" viewBox="0 0 960 1080" fill="none" xmlns="http://www.w3.org/2000/svg">
<rect width="960" height="1080" fill="#F5F6F7"/>
<path d="M240 480C240 347.452 347.452 240 480 240C612.548 240 720 347.452 720 480C720 612.548 612.548 720 480 720H240V480Z" fill="#DFE1E4"/>
<path fill-rule="evenodd" clip-rule="evenodd" d="M480 0C347.452 0 240 107.452 240 240H352C352 169.308 409.308 112 480 112C550.692 112 608 169.308 608 240H720C720 107.452 612.548 0 480 0Z" fill="#EBEDEE"/>
<path d="M0 600C0 533.726 53.7258 480 120 480C186.274 480 240 533.726 240 600H0Z" fill="#DFE1E4"/>
<path d="M0 480C0 413.726 53.7258 360 120 360C186.274 360 240 413.726 240 480H0Z" fill="#EBEDEE"/>
<path d="M360.5 960C360.5 827.452 467.952 720 600.5 720V960H360.5Z" fill="#EBEDEE"/>
<path d="M720 -9.53991e-07C852.548 4.83988e-06 960 107.452 960 240L720 240L720 -9.53991e-07Z" fill="#DFE1E4"/>
<path d="M361 1080C361 1013.73 414.726 960 481 960C547.274 960 601 1013.73 601 1080H361Z" fill="white"/>
<path d="M240 1080C240 1013.73 293.726 960 360 960V1080H240Z" fill="#DFE1E4"/>
<path d="M601 1020C601 986.863 627.863 960 661 960C694.137 960 721 986.863 721 1020C721 1053.14 694.137 1080 661 1080H601V1020Z" fill="#DFE1E4"/>
<path d="M720 360C720 293.726 773.726 240 840 240V360H720Z" fill="white"/>
<path fill-rule="evenodd" clip-rule="evenodd" d="M960 240C893.726 240 840 293.726 840 360H896C896 324.654 924.654 296 960 296V240Z" fill="#DFE1E4"/>
<path d="M0 0H240C240 66.2742 186.274 120 120 120C53.7258 120 0 66.2742 0 0Z" fill="#DFE1E4"/>
<path fill-rule="evenodd" clip-rule="evenodd" d="M120 120C53.7258 120 0 173.726 0 240C0 306.274 53.7258 360 120 360H240V240C240 173.726 186.274 120 120 120ZM120 176C84.6538 176 56 204.654 56 240C56 275.346 84.6538 304 120 304C155.346 304 184 275.346 184 240C184 204.654 155.346 176 120 176Z" fill="white"/>
<path d="M0 840C0 773.726 53.7258 720 120 720C186.274 720 240 773.726 240 840C240 906.274 186.274 960 120 960C53.7258 960 0 906.274 0 840Z" fill="#DFE1E4"/>
<path fill-rule="evenodd" clip-rule="evenodd" d="M120 600C53.7258 600 0 653.726 0 720H56C56 684.654 84.6538 656 120 656C155.346 656 184 684.654 184 720H240C240 653.726 186.274 600 120 600Z" fill="#EBEDEE"/>
<path fill-rule="evenodd" clip-rule="evenodd" d="M360 840C360 773.726 306.274 720 240 720L240 776C275.346 776 304 804.654 304 840C304 875.346 275.346 904 240 904L240 960C306.274 960 360 906.274 360 840Z" fill="white"/>
<path fill-rule="evenodd" clip-rule="evenodd" d="M120 960C53.7258 960 0 1013.73 0 1080H56C56 1044.65 84.6538 1016 120 1016C155.346 1016 184 1044.65 184 1080H240C240 1013.73 186.274 960 120 960Z" fill="#EBEDEE"/>
<path d="M720 480C720 413.726 773.726 360 840 360C906.274 360 960 413.726 960 480C960 546.274 906.274 600 840 600C773.726 600 720 546.274 720 480Z" fill="#EBEDEE"/>
<path fill-rule="evenodd" clip-rule="evenodd" d="M840 720C906.274 720 960 666.274 960 600L904 600C904 635.346 875.346 664 840 664C804.654 664 776 635.346 776 600L720 600C720 666.274 773.726 720 840 720Z" fill="white"/>
<path fill-rule="evenodd" clip-rule="evenodd" d="M840 840C906.274 840 960 786.274 960 720L904 720C904 755.346 875.346 784 840 784C804.654 784 776 755.346 776 720L720 720C720 786.274 773.726 840 840 840Z" fill="#EBEDEE"/>
<path d="M600 840C600 773.726 653.726 720 720 720V840H600Z" fill="#DFE1E4"/>
<path d="M600 960C600 893.726 653.726 840 720 840V960H600Z" fill="#EBEDEE"/>
<path fill-rule="evenodd" clip-rule="evenodd" d="M840 840C773.726 840 720 893.726 720 960C720 1026.27 773.726 1080 840 1080C906.274 1080 960 1026.27 960 960C960 893.726 906.274 840 840 840ZM840 896C804.654 896 776 924.654 776 960C776 995.346 804.654 1024 840 1024C875.346 1024 904 995.346 904 960C904 924.654 875.346 896 840 896Z" fill="white"/>
</svg>
