<svg width="16" height="16" viewBox="0 0 16 16" fill="none" xmlns="http://www.w3.org/2000/svg">
<path fill-rule="evenodd" clip-rule="evenodd" d="M6.625 1.75C5.72754 1.75 5 2.47754 5 3.375V5H3.375C2.47754 5 1.75 5.72754 1.75 6.625V12.625C1.75 13.5225 2.47754 14.25 3.375 14.25H9.375C10.2725 14.25 11 13.5225 11 12.625V11H12.625C13.5225 11 14.25 10.2725 14.25 9.375V3.375C14.25 2.47754 13.5225 1.75 12.625 1.75H6.625ZM9.75 11H6.625C5.72754 11 5 10.2725 5 9.375V6.25H3.375C3.16789 6.25 3 6.41789 3 6.625V12.625C3 12.8321 3.16789 13 3.375 13H9.375C9.58211 13 9.75 12.8321 9.75 12.625V11ZM6.25 3.375C6.25 3.16789 6.41789 3 6.625 3H12.625C12.8321 3 13 3.16789 13 3.375V9.375C13 9.58211 12.8321 9.75 12.625 9.75H6.625C6.41789 9.75 6.25 9.58211 6.25 9.375V3.375Z" fill="#5C6876"/>
</svg>