<svg width="22" height="22" viewBox="0 0 22 22" fill="none" xmlns="http://www.w3.org/2000/svg">
<path fill-rule="evenodd" clip-rule="evenodd" d="M7.35861 10.1563H14.6415C14.5544 7.68715 14.0891 5.50059 13.4065 3.90775C13.0261 3.02021 12.5949 2.35588 12.159 1.92568C11.7267 1.49906 11.336 1.34375 11 1.34375C10.664 1.34375 10.2734 1.49906 9.84112 1.92568C9.40522 2.35588 8.97396 3.02021 8.59359 3.90775C7.91094 5.50059 7.44573 7.68715 7.35861 10.1563ZM14.6415 11.8438C14.5544 14.3129 14.0891 16.4994 13.4065 18.0923C13.0261 18.9798 12.5949 19.6441 12.159 20.0743C11.7267 20.5009 11.336 20.6562 11 20.6562C10.664 20.6562 10.2734 20.5009 9.84112 20.0743C9.40522 19.6441 8.97396 18.9798 8.59359 18.0923C7.91094 16.4994 7.44573 14.3129 7.35861 11.8438H14.6415ZM16.3299 11.8438H21.4666C21.1011 16.4412 17.7742 20.2046 13.3938 21.2259C14.0129 20.5977 14.5348 19.7434 14.9575 18.757C15.7442 16.9214 16.2424 14.5003 16.3299 11.8438ZM21.4666 10.1563H16.3299C16.2424 7.49968 15.7442 5.07856 14.9575 3.24301C14.5348 2.25656 14.0129 1.40226 13.3938 0.774076C17.7742 1.79544 21.1011 5.55878 21.4666 10.1563ZM5.67014 10.1563H0.533447C0.899002 5.55878 4.2259 1.79544 8.60632 0.774076C7.98718 1.40226 7.46529 2.25656 7.04253 3.24301C6.25586 5.07856 5.75768 7.49968 5.67014 10.1563ZM5.67014 11.8438H0.533448C0.899004 16.4412 4.2259 20.2046 8.60632 21.2259C7.98717 20.5977 7.46529 19.7434 7.04253 18.757C6.25586 16.9214 5.75768 14.5003 5.67014 11.8438Z" fill="#0275F5"/>
</svg>
