<svg width="120" height="36" viewBox="0 0 120 36" fill="none" xmlns="http://www.w3.org/2000/svg">
<path d="M92.4565 0H98.4925V35.964H92.4565V0Z" fill="#0275F5"/>
<path d="M21.8459 6.35583C23.3002 4.92819 23.3218 2.59191 21.8942 1.13761C20.4665 -0.316695 18.1302 -0.338306 16.6759 1.08934C15.2216 2.51698 15.2 4.85326 16.6277 6.30756C18.0553 7.76187 20.3916 7.78348 21.8459 6.35583Z" fill="#0275F5"/>
<path d="M30.1689 10.6955C34.2154 11.6551 36.7178 15.7132 35.7583 19.7597C34.7988 23.8062 30.7406 26.3087 26.6941 25.3492C22.6476 24.3896 20.1451 20.3314 21.1047 16.285C22.0642 12.2385 26.1224 9.73598 30.1689 10.6955Z" fill="#0275F5"/>
<path d="M21.8963 29.7197C23.3239 31.174 23.3023 33.5103 21.848 34.9379C20.3937 36.3656 18.0574 36.344 16.6298 34.8897C15.2021 33.4353 15.2238 31.0991 16.6781 29.6714C18.1324 28.2438 20.4686 28.2654 21.8963 29.7197Z" fill="#0275F5"/>
<path d="M0.350498 7.63198C-0.523524 9.97901 0.277015 12.6208 2.30683 14.0878C4.33665 15.5549 7.09618 15.4862 9.0505 13.92C10.4236 12.917 12.208 12.6692 13.8025 13.26C14.8238 13.6288 15.6977 14.3195 16.2925 15.228L16.3825 15.366C16.6401 15.7855 17.031 16.1066 17.4925 16.278C18.6523 16.7055 19.939 16.1118 20.3665 14.952C20.794 13.7922 20.2003 12.5055 19.0405 12.078C18.552 11.9011 18.017 11.9011 17.5285 12.078C16.2364 12.4894 14.8333 12.3655 13.6334 11.734C12.4334 11.1024 11.5369 10.016 11.1445 8.71798L11.1025 8.56198L11.0365 8.39998L11.0065 8.28598C10.4439 5.89081 8.37741 4.14782 5.92166 3.9971C3.46591 3.84638 1.20181 5.32358 0.350498 7.63198Z" fill="#0275F5"/>
<path d="M2.32837 21.9615C0.302853 23.4255 -0.500662 26.0587 0.362431 28.4041C1.2209 30.7019 3.48064 32.1685 5.9289 32.0166C8.37716 31.8648 10.4384 30.1304 11.0064 27.7441L11.0364 27.6301C11.0476 27.5773 11.0616 27.5253 11.0784 27.4741L11.1204 27.3181C11.5115 26.0205 12.4068 24.9341 13.6058 24.3025C14.8048 23.6708 16.2072 23.5468 17.4984 23.9581C17.9848 24.1351 18.518 24.1351 19.0044 23.9581C19.7547 23.6815 20.3004 23.0258 20.4361 22.2378C20.5717 21.4498 20.2767 20.6492 19.6621 20.1378C19.0475 19.6263 18.2067 19.4815 17.4564 19.7581C16.9937 19.9274 16.6023 20.249 16.3464 20.6701L16.2624 20.8081C15.501 21.9612 14.3014 22.753 12.9418 23C11.5823 23.247 10.1808 22.9277 9.06243 22.1161C7.10622 20.5607 4.35388 20.4975 2.32837 21.9615Z" fill="#0275F5"/>
<path fill-rule="evenodd" clip-rule="evenodd" d="M69.2845 9.89404H64.7605V13.0574C62.4762 11.0861 59.5006 9.89404 56.2466 9.89404C49.0459 9.89404 43.2086 15.7314 43.2086 22.932C43.2086 30.1327 49.0459 35.97 56.2466 35.97C59.5006 35.97 62.4762 34.778 64.7605 32.8067V35.9641H69.2845V32.8446C69.6792 33.1824 70.0977 33.4996 70.5392 33.7938C75.7167 37.2435 82.6103 36.5544 87.0025 32.1481L83.5765 28.7161C82.1863 29.893 80.424 30.5392 78.6025 30.5401C75.2411 30.5469 72.2582 28.3882 71.2134 25.194H85.9605L85.9585 25.2001H90.6025C90.7372 24.4536 90.8055 23.6967 90.8065 22.9381C90.8039 16.7166 86.4058 11.3637 80.303 10.1543C76.2735 9.3558 72.2422 10.5105 69.2845 13.0424V9.89404ZM71.122 20.67H86.0519C85.5901 19.0384 84.5959 17.562 83.157 16.5131C80.4383 14.5312 76.7521 14.5275 74.0294 16.504C72.5841 17.5532 71.5852 19.0335 71.122 20.67ZM64.7413 22.3778C64.5357 19.464 62.7027 16.8917 59.9756 15.7603C57.0768 14.5576 53.739 15.2199 51.519 17.4382C49.299 19.6565 48.6341 22.9938 49.8346 25.8935C51.035 28.7932 53.8642 30.684 57.0026 30.684C59.0596 30.6856 61.0329 29.8696 62.488 28.4157C63.8117 27.093 64.6078 25.341 64.7407 23.4868C64.7252 23.1183 64.7253 22.7483 64.7413 22.3778Z" fill="#0275F5"/>
<path d="M100.119 19.1461V13.1101H103.599V9.59999C103.592 4.33158 107.852 0.0525295 113.121 0.0359871H116.673V6.07799H113.121C111.187 6.09446 109.629 7.6665 109.629 9.59999V13.1101H116.673V19.1461H109.629V36H103.599V19.1461H100.119Z" fill="#0275F5"/>
<path d="M120.003 29.964H113.967V36H120.003V29.964Z" fill="#0275F5"/>
</svg>
