<svg width="24" height="24" viewBox="0 0 24 24" fill="none" xmlns="http://www.w3.org/2000/svg">
<circle cx="12" cy="12" r="12" fill="#F2FBEA"/>
<path fill-rule="evenodd" clip-rule="evenodd" d="M12 23C18.0751 23 23 18.0751 23 12C23 5.92487 18.0751 1 12 1C5.92487 1 1 5.92487 1 12C1 18.0751 5.92487 23 12 23ZM12 24C18.6274 24 24 18.6274 24 12C24 5.37258 18.6274 0 12 0C5.37258 0 0 5.37258 0 12C0 18.6274 5.37258 24 12 24Z" fill="#C8EFA8"/>
<path d="M11.6489 7.74908C11.5025 7.89553 11.5025 8.13296 11.6489 8.27941L14.4642 11.0947H6.375C6.16789 11.0947 6 11.2626 6 11.4697V12.5947C6 12.8018 6.16789 12.9697 6.375 12.9697H14.3833L11.6489 15.704C11.5025 15.8505 11.5025 16.0879 11.6489 16.2344L12.4444 17.0299C12.5908 17.1763 12.8283 17.1763 12.9747 17.0299L17.4825 12.5221C17.7754 12.2292 17.7754 11.7543 17.4825 11.4614L12.9747 6.95358C12.8283 6.80714 12.5908 6.80714 12.4444 6.95358L11.6489 7.74908Z" fill="#7AD82C"/>
</svg>