<svg width="19" height="14" viewBox="0 0 19 14" fill="none" xmlns="http://www.w3.org/2000/svg">
<path d="M11.7661 2.21593C11.6196 2.06949 11.6196 1.83205 11.7661 1.6856L12.5616 0.890108C12.708 0.743662 12.9455 0.743662 13.0919 0.890108L18.6604 6.45858C18.9167 6.71486 18.9487 7.11047 18.7565 7.40158C18.729 7.44317 18.697 7.48262 18.6604 7.51923L13.0919 13.0877C12.9455 13.2341 12.708 13.2341 12.5616 13.0877L11.7661 12.2922C11.6196 12.1458 11.6196 11.9083 11.7661 11.7619L15.5904 7.93761H0.5C0.292893 7.93761 0.125 7.76971 0.125 7.56261V6.43761C0.125 6.2305 0.292893 6.06261 0.5 6.06261H15.6128L11.7661 2.21593Z" fill="#3EABFD"/>
</svg>